<svg version="1.1" id="Layer_1" xmlns="http://www.w3.org/2000/svg" xmlns:xlink="http://www.w3.org/1999/xlink" x="0px" y="0px"
	 width="100%" viewBox="0 0 225 225" enable-background="new 0 0 225 225" xml:space="preserve">
<path fill="#051932" opacity="1.000000" stroke="none" 
	d="
M226.000000,160.000000 
	C226.000000,181.983429 226.000000,203.966858 226.000000,225.975143 
	C151.073074,225.975143 76.146149,225.975143 1.109612,225.975143 
	C1.109612,151.000092 1.109612,76.000069 1.110255,1.000027 
	C22.428160,1.000000 43.745422,1.000000 65.531342,1.468652 
	C65.973190,9.388830 66.853500,16.995607 65.613731,24.239540 
	C64.726715,29.422348 67.820023,32.503330 68.614830,36.538643 
	C69.772865,42.418175 73.838890,43.400562 77.871429,45.304634 
	C69.632835,51.514515 65.226646,59.382088 64.846954,69.471329 
	C64.521423,78.121460 64.466370,78.119385 72.907631,78.692413 
	C74.009979,78.806625 75.073586,78.595566 76.545227,78.340256 
	C78.594666,78.310364 80.236069,78.324730 81.898911,78.636597 
	C82.659492,78.753754 83.398628,78.573402 84.545418,78.348282 
	C88.067940,78.791832 89.174591,77.059654 89.745483,74.318481 
	C90.160042,72.327942 91.080803,70.442818 91.944145,68.905106 
	C92.262505,72.360085 92.412575,75.420654 92.586372,78.965096 
	C96.434258,78.980835 96.841057,81.905899 97.256699,85.822777 
	C97.611107,89.162514 99.115959,93.186310 101.527733,95.263901 
	C103.726357,97.157875 103.962418,98.751045 103.650223,100.953842 
	C101.274536,100.672218 98.136993,96.323929 97.623138,101.617760 
	C97.289673,105.053154 95.719505,104.728226 93.582603,105.035820 
	C90.197945,105.523033 86.722542,105.858543 83.518311,106.944855 
	C81.528259,107.619522 79.121902,109.186829 80.922272,112.496834 
	C73.623276,116.935982 68.902817,123.273628 67.308777,131.072983 
	C65.802437,138.443268 65.518524,146.161026 65.532593,153.724396 
	C65.563408,170.289032 72.001038,179.836823 88.235512,185.919128 
	C92.732315,187.603882 97.426300,188.762329 102.359459,190.407837 
	C110.128227,190.768539 117.567360,190.883652 125.432686,190.996613 
	C130.720459,190.455185 135.572250,189.786118 140.446793,189.419342 
	C144.086838,189.145447 145.253265,187.209457 144.944550,183.940155 
	C144.951004,183.984833 144.885635,183.922562 145.204102,183.906952 
	C145.984558,183.511826 146.446579,183.132309 147.095795,182.467041 
	C149.920364,180.285645 153.195374,178.872559 155.068100,176.398178 
	C159.562378,170.460052 162.071518,163.557602 162.669342,155.913025 
	C163.306900,155.217194 163.670792,154.603729 164.385864,154.036133 
	C168.563416,155.736526 168.549438,152.444763 168.811844,150.500229 
	C169.452698,145.750854 169.613281,140.937729 170.011566,136.153976 
	C170.148697,134.506836 170.417084,132.870621 170.625519,131.229401 
	C171.174606,131.213928 171.723679,131.198456 172.272766,131.182983 
	C173.421936,140.225113 174.571121,149.267227 175.720291,158.309357 
	C176.758835,156.961807 176.985397,155.695648 176.982803,154.429947 
	C176.962112,144.388672 176.071915,145.115631 186.430069,144.941727 
	C191.050598,144.864136 193.341080,146.486343 193.065964,151.310211 
	C192.993286,152.584213 193.816177,153.898132 193.800659,155.188599 
	C193.751892,159.238708 195.913986,160.131378 199.533417,160.057922 
	C208.352356,159.878983 217.177414,159.999863 226.000000,160.000000 
M88.851532,79.700294 
	C88.929832,79.563095 89.008141,79.425903 89.086449,79.288704 
	C88.959641,79.347527 88.832832,79.406349 88.851532,79.700294 
z"/>
<path fill="#061A37" opacity="1.000000" stroke="none" 
	d="
M226.000000,159.531372 
	C217.177414,159.999863 208.352356,159.878983 199.533417,160.057922 
	C195.913986,160.131378 193.751892,159.238708 193.800659,155.188599 
	C193.816177,153.898132 192.993286,152.584213 193.065964,151.310211 
	C193.341080,146.486343 191.050598,144.864136 186.430069,144.941727 
	C176.071915,145.115631 176.962112,144.388672 176.982803,154.429947 
	C176.985397,155.695648 176.758835,156.961807 175.720291,158.309357 
	C174.571121,149.267227 173.421936,140.225113 172.272766,131.182983 
	C171.723679,131.198456 171.174606,131.213928 170.625519,131.229401 
	C170.417084,132.870621 170.148697,134.506836 170.011566,136.153976 
	C169.613281,140.937729 169.452698,145.750854 168.811844,150.500229 
	C168.549438,152.444763 168.563416,155.736526 164.380234,153.705688 
	C164.027893,152.888474 164.032379,152.447586 164.391006,151.914719 
	C166.434830,149.644012 167.238815,147.573654 164.024780,145.525757 
	C164.015457,137.370605 164.013397,129.683640 164.368042,122.082932 
	C165.487198,123.682983 166.249634,125.196793 167.374405,127.430016 
	C168.940918,125.777374 170.229507,124.417938 172.400070,122.128021 
	C172.776474,130.342834 177.261673,129.000168 182.215393,128.188416 
	C186.662994,127.459595 191.676361,126.881462 194.335007,132.383698 
	C194.686249,133.110626 195.879669,133.808136 196.724518,133.861389 
	C206.531128,134.479340 215.953583,138.699570 226.000000,137.000000 
	C226.000000,144.354248 226.000000,151.708496 226.000000,159.531372 
z"/>
<path fill="#092E5B" opacity="1.000000" stroke="none" 
	d="
M226.000000,78.000000 
	C226.000000,81.030594 226.000000,84.061188 225.558167,87.545807 
	C217.183838,86.628685 209.241302,85.312538 201.322144,83.868217 
	C195.469360,82.800743 189.669861,81.431236 185.390335,76.847069 
	C182.664139,73.926834 179.858856,71.999092 176.033752,74.841835 
	C174.445984,72.043488 173.033508,69.554070 171.757324,67.304893 
	C169.403809,67.997307 167.702820,68.497742 166.000275,68.612595 
	C164.346939,65.819382 162.695160,63.411751 160.908905,60.756905 
	C160.476242,59.860100 160.178040,59.210510 159.901855,58.131645 
	C159.923874,56.129185 159.923874,54.556004 159.923874,52.729183 
	C158.623184,52.913929 157.695190,53.045742 156.834320,53.143784 
	C156.901443,53.110012 156.810349,53.229549 156.856842,52.847454 
	C155.652466,51.289146 154.401581,50.112934 153.100281,48.939171 
	C153.049866,48.941616 153.060974,48.841278 152.974350,48.553230 
	C152.421371,48.014877 151.955032,47.764576 151.633423,47.357254 
	C151.778152,47.200233 151.454468,47.478878 151.570740,47.119858 
	C150.459030,44.845028 149.231033,42.929214 147.794876,40.745926 
	C143.071121,38.299011 142.004745,34.762836 142.879227,29.991013 
	C143.237488,28.036135 142.247086,25.837856 141.888504,23.747164 
	C140.588150,16.165495 139.295547,8.582495 138.000000,0.999999 
	C140.700012,1.000000 143.400024,1.000000 146.550018,1.433988 
	C148.860107,10.318297 150.555801,18.810310 152.681519,27.193281 
	C153.311020,29.675861 155.004623,31.950935 156.482956,34.136929 
	C157.745041,36.003212 159.751999,37.411770 160.815720,39.358212 
	C165.308487,47.579323 168.897095,56.471870 178.532120,60.376629 
	C179.543427,60.786480 180.223434,61.950798 181.154205,62.632603 
	C187.142014,67.018845 192.057922,73.016785 200.221085,73.996689 
	C208.849915,75.032494 217.409927,76.641426 226.000000,78.000000 
z"/>
<path fill="#093266" opacity="1.000000" stroke="none" 
	d="
M226.000000,77.545891 
	C217.409927,76.641426 208.849915,75.032494 200.221085,73.996689 
	C192.057922,73.016785 187.142014,67.018845 181.154205,62.632603 
	C180.223434,61.950798 179.543427,60.786480 178.532120,60.376629 
	C168.897095,56.471870 165.308487,47.579323 160.815720,39.358212 
	C159.751999,37.411770 157.745041,36.003212 156.482956,34.136929 
	C155.004623,31.950935 153.311020,29.675861 152.681519,27.193281 
	C150.555801,18.810310 148.860107,10.318297 147.000000,1.433988 
	C150.692902,1.000000 154.385818,1.000000 158.539368,1.453251 
	C159.810120,9.135376 159.458359,16.748182 161.691666,23.506779 
	C165.418259,34.784477 172.099640,44.724586 181.706360,52.024506 
	C187.900635,56.731384 194.379730,61.756519 201.560165,64.283409 
	C209.196976,66.970924 217.812073,66.878555 226.000000,68.000000 
	C226.000000,71.030594 226.000000,74.061188 226.000000,77.545891 
z"/>
<path fill="#061E3C" opacity="1.000000" stroke="none" 
	d="
M226.000000,136.532394 
	C215.953583,138.699570 206.531128,134.479340 196.724518,133.861389 
	C195.879669,133.808136 194.686249,133.110626 194.335007,132.383698 
	C191.676361,126.881462 186.662994,127.459595 182.215393,128.188416 
	C177.261673,129.000168 172.776474,130.342834 172.400070,122.128021 
	C170.229507,124.417938 168.940918,125.777374 167.374405,127.430016 
	C166.249634,125.196793 165.487198,123.682983 164.364227,121.615372 
	C164.004868,115.373711 164.006058,109.685844 164.332367,104.057251 
	C165.735870,104.982269 166.814270,105.848022 167.321564,106.255287 
	C169.893143,105.001938 171.946259,104.001282 174.000671,103.398598 
	C174.308762,108.233543 175.717728,110.807411 181.081512,111.315544 
	C185.744629,111.757286 191.422333,111.680496 194.273804,117.324547 
	C194.800018,118.366096 197.186310,118.843971 198.747940,118.924370 
	C207.826355,119.391747 216.914886,119.662674 226.000000,120.000000 
	C226.000000,125.354927 226.000000,130.709854 226.000000,136.532394 
z"/>
<path fill="#051A37" opacity="1.000000" stroke="none" 
	d="
M78.032433,45.009850 
	C73.838890,43.400562 69.772865,42.418175 68.614830,36.538643 
	C67.820023,32.503330 64.726715,29.422348 65.613731,24.239540 
	C66.853500,16.995607 65.973190,9.388830 66.000000,1.468652 
	C73.354256,1.000000 80.708504,1.000000 88.531380,1.464194 
	C89.275803,8.038836 87.416679,14.569965 93.362831,19.484581 
	C94.262466,20.228149 93.895157,24.022877 92.814507,25.341007 
	C90.238708,28.482862 91.445976,29.556900 94.272324,31.334835 
	C96.258339,32.584156 97.473450,35.058952 98.602722,37.002144 
	C95.706680,37.226143 93.225388,37.713379 90.778244,37.578957 
	C86.897446,37.365784 82.619751,39.680374 80.946411,43.516960 
	C79.866760,44.187515 78.949600,44.598686 78.032433,45.009850 
z"/>
<path fill="#0A3770" opacity="1.000000" stroke="none" 
	d="
M226.000000,67.562500 
	C217.812073,66.878555 209.196976,66.970924 201.560165,64.283409 
	C194.379730,61.756519 187.900635,56.731384 181.706360,52.024506 
	C172.099640,44.724586 165.418259,34.784477 161.691666,23.506779 
	C159.458359,16.748182 159.810120,9.135376 159.000000,1.453251 
	C160.714355,1.000000 162.428711,1.000000 164.571533,1.466033 
	C164.855225,9.211105 164.413559,16.397612 169.567184,22.705875 
	C171.991806,25.673719 173.557632,29.541861 174.792450,33.242348 
	C177.503311,41.366287 184.746750,45.230976 190.475372,50.438534 
	C192.885880,52.629761 196.462143,53.549801 199.528000,55.006596 
	C206.495621,58.317375 213.175888,62.632366 221.519379,61.039177 
	C222.962784,60.763561 224.503983,61.000050 226.000000,61.000000 
	C226.000000,63.041668 226.000000,65.083336 226.000000,67.562500 
z"/>
<path fill="#061E3C" opacity="1.000000" stroke="none" 
	d="
M99.032799,36.986526 
	C97.473450,35.058952 96.258339,32.584156 94.272324,31.334835 
	C91.445976,29.556900 90.238708,28.482862 92.814507,25.341007 
	C93.895157,24.022877 94.262466,20.228149 93.362831,19.484581 
	C87.416679,14.569965 89.275803,8.038836 89.000000,1.464194 
	C94.688042,1.000000 100.376083,1.000000 106.532059,1.437153 
	C107.689346,11.339351 108.287544,20.812807 109.159447,30.261002 
	C109.301712,31.802668 110.652733,33.232788 111.445854,34.715935 
	C110.963058,34.963642 109.988144,35.463840 108.591522,35.975227 
	C106.483444,36.493500 104.797073,37.000580 102.880386,37.661537 
	C102.102089,37.831409 101.554100,37.847404 100.810417,37.663860 
	C100.087410,37.305058 99.560104,37.145794 99.032799,36.986526 
z"/>
<path fill="#072143" opacity="1.000000" stroke="none" 
	d="
M226.000000,119.541931 
	C216.914886,119.662674 207.826355,119.391747 198.747940,118.924370 
	C197.186310,118.843971 194.800018,118.366096 194.273804,117.324547 
	C191.422333,111.680496 185.744629,111.757286 181.081512,111.315544 
	C175.717728,110.807411 174.308762,108.233543 174.000977,103.064758 
	C174.000412,101.887817 174.000824,101.442688 174.356216,101.069992 
	C176.846008,102.114998 178.894913,103.465645 181.135056,103.974525 
	C184.804047,104.807999 188.586624,105.196129 192.340286,105.592041 
	C203.555252,106.774910 214.779419,107.870392 226.000000,109.000000 
	C226.000000,112.361290 226.000000,115.722572 226.000000,119.541931 
z"/>
<path fill="#072245" opacity="1.000000" stroke="none" 
	d="
M109.013229,35.964035 
	C109.988144,35.463840 110.963058,34.963642 111.445854,34.715935 
	C110.652733,33.232788 109.301712,31.802668 109.159447,30.261002 
	C108.287544,20.812807 107.689346,11.339351 107.000000,1.437153 
	C111.356903,1.000000 115.713799,1.000000 120.535355,1.467106 
	C121.998215,10.732008 123.520798,19.514235 123.782707,28.333897 
	C123.922478,33.040558 125.821938,34.454567 129.669174,34.680676 
	C131.423096,34.783756 133.214355,34.251377 134.992813,34.338783 
	C135.001205,35.112499 135.005463,35.554665 134.690720,36.139214 
	C133.251129,36.522480 132.130569,36.763359 130.580658,37.002953 
	C123.105301,36.655792 116.059265,36.309914 109.013229,35.964035 
z"/>
<path fill="#0B3A76" opacity="1.000000" stroke="none" 
	d="
M226.000000,60.600006 
	C224.503983,61.000050 222.962784,60.763561 221.519379,61.039177 
	C213.175888,62.632366 206.495621,58.317375 199.528000,55.006596 
	C196.462143,53.549801 192.885880,52.629761 190.475372,50.438534 
	C184.746750,45.230976 177.503311,41.366287 174.792450,33.242348 
	C173.557632,29.541861 171.991806,25.673719 169.567184,22.705875 
	C164.413559,16.397612 164.855225,9.211105 165.000000,1.466033 
	C166.388885,1.000000 167.777786,1.000000 169.583344,1.443386 
	C171.736542,36.304951 194.544876,54.207890 226.000000,57.000000 
	C226.000000,58.066669 226.000000,59.133339 226.000000,60.600006 
z"/>
<path fill="#0D4892" opacity="1.000000" stroke="none" 
	d="
M185.000000,1.000000 
	C187.041672,1.000000 189.083328,1.000000 191.562820,1.417377 
	C194.188446,20.282578 207.196793,32.665264 226.000000,34.000000 
	C226.000000,35.714420 226.000000,37.428844 225.533569,39.571709 
	C216.187332,40.316914 208.018921,40.121460 200.837952,32.735332 
	C191.975449,23.619616 182.999817,15.249288 185.000000,1.000000 
z"/>
<path fill="#082A54" opacity="1.000000" stroke="none" 
	d="
M166.001831,68.998169 
	C167.702820,68.497742 169.403809,67.997307 171.757324,67.304893 
	C173.033508,69.554070 174.445984,72.043488 176.033752,74.841835 
	C179.858856,71.999092 182.664139,73.926834 185.390335,76.847069 
	C189.669861,81.431236 195.469360,82.800743 201.322144,83.868217 
	C209.241302,85.312538 217.183838,86.628685 225.558167,87.999908 
	C226.000000,89.714355 226.000000,91.428719 225.533112,93.571533 
	C218.700531,93.589561 211.901810,95.698189 206.313034,90.693359 
	C205.769379,90.206505 204.764389,90.108231 203.959778,90.060173 
	C199.198105,89.775734 193.923370,91.251968 190.691483,85.930954 
	C190.415985,85.477371 189.530609,85.234192 188.903580,85.179512 
	C183.939743,84.746635 178.969864,84.383232 174.001495,83.665398 
	C174.000565,82.888214 173.999985,82.444107 173.999603,81.595451 
	C173.612991,74.881248 173.298859,74.590187 166.830414,74.604485 
	C166.555374,72.743538 166.278595,70.870857 166.001831,68.998169 
z"/>
<path fill="#062348" opacity="1.000000" stroke="none" 
	d="
M226.000000,108.571533 
	C214.779419,107.870392 203.555252,106.774910 192.340286,105.592041 
	C188.586624,105.196129 184.804047,104.807999 181.135056,103.974525 
	C178.894913,103.465645 176.846008,102.114998 174.356064,100.639305 
	C173.440933,97.661995 175.589493,93.939835 170.851974,93.162682 
	C169.898315,95.097054 169.021652,96.875229 168.145004,98.653404 
	C166.715561,96.773552 166.505463,95.027138 165.949753,93.398659 
	C165.535965,92.186096 164.674835,91.126183 164.006073,89.667908 
	C163.995682,88.896935 163.992142,88.456352 163.995392,87.678513 
	C164.010147,86.891922 164.018097,86.442581 164.422485,86.053268 
	C165.447128,86.319145 166.073273,86.695412 166.703857,86.703064 
	C170.668137,86.751152 174.199631,87.024681 174.924667,92.270859 
	C175.061188,93.258591 177.973206,93.916962 179.648041,94.624168 
	C181.756317,95.514404 183.943649,96.221588 186.033020,97.151245 
	C187.943649,98.001381 189.677582,99.464592 191.655228,99.894203 
	C194.196167,100.446190 196.912903,100.127151 199.536011,100.373802 
	C208.361618,101.203667 217.179291,102.117989 226.000000,103.000000 
	C226.000000,104.714355 226.000000,106.428719 226.000000,108.571533 
z"/>
<path fill="#0C4081" opacity="1.000000" stroke="none" 
	d="
M226.000000,46.000000 
	C226.000000,47.388889 226.000000,48.777779 225.550659,50.583336 
	C214.294174,50.235920 204.109421,49.467476 194.256485,42.603928 
	C187.032684,37.571846 182.936172,30.985939 179.447739,24.339102 
	C175.854324,17.492275 175.673798,8.854282 174.000000,1.000001 
	C175.714157,1.000000 177.428329,1.000000 179.571289,1.444742 
	C180.333420,6.322246 180.472076,10.781912 181.079590,15.176771 
	C181.398148,17.481388 181.958740,20.186338 183.410248,21.823915 
	C189.072250,28.211672 195.069168,34.309464 201.088104,40.369534 
	C202.803040,42.096191 204.872742,44.293659 207.023727,44.608505 
	C213.282944,45.524677 219.665695,45.596836 226.000000,46.000000 
z"/>
<path fill="#0C4388" opacity="1.000000" stroke="none" 
	d="
M226.000000,45.571537 
	C219.665695,45.596836 213.282944,45.524677 207.023727,44.608505 
	C204.872742,44.293659 202.803040,42.096191 201.088104,40.369534 
	C195.069168,34.309464 189.072250,28.211672 183.410248,21.823915 
	C181.958740,20.186338 181.398148,17.481388 181.079590,15.176771 
	C180.472076,10.781912 180.333420,6.322246 180.000061,1.444742 
	C181.388885,1.000000 182.777786,1.000000 184.583344,1.000000 
	C182.999817,15.249288 191.975449,23.619616 200.837952,32.735332 
	C208.018921,40.121460 216.187332,40.316914 225.533569,40.000076 
	C226.000000,41.714359 226.000000,43.428715 226.000000,45.571537 
z"/>
<path fill="#0B3D7C" opacity="1.000000" stroke="none" 
	d="
M173.600006,1.000001 
	C175.673798,8.854282 175.854324,17.492275 179.447739,24.339102 
	C182.936172,30.985939 187.032684,37.571846 194.256485,42.603928 
	C204.109421,49.467476 214.294174,50.235920 225.550659,51.000000 
	C226.000000,52.714359 226.000000,54.428715 226.000000,56.571537 
	C194.544876,54.207890 171.736542,36.304951 170.000000,1.443386 
	C171.066666,1.000000 172.133347,1.000000 173.600006,1.000001 
z"/>
<path fill="#07264D" opacity="1.000000" stroke="none" 
	d="
M134.988678,34.007225 
	C133.214355,34.251377 131.423096,34.783756 129.669174,34.680676 
	C125.821938,34.454567 123.922478,33.040558 123.782707,28.333897 
	C123.520798,19.514235 121.998215,10.732008 121.000000,1.467106 
	C123.700012,1.000000 126.400024,1.000000 129.550018,1.464221 
	C130.000000,3.088943 129.984421,4.249690 130.002762,5.409900 
	C130.074570,9.951255 130.070282,14.029811 133.117844,18.395578 
	C136.001602,22.526667 137.434113,28.438755 134.988678,34.007225 
z"/>
<path fill="#08254C" opacity="1.000000" stroke="none" 
	d="
M226.000000,102.600006 
	C217.179291,102.117989 208.361618,101.203667 199.536011,100.373802 
	C196.912903,100.127151 194.196167,100.446190 191.655228,99.894203 
	C189.677582,99.464592 187.943649,98.001381 186.033020,97.151245 
	C183.943649,96.221588 181.756317,95.514404 179.648041,94.624168 
	C177.973206,93.916962 175.061188,93.258591 174.924667,92.270859 
	C174.199631,87.024681 170.668137,86.751152 166.703857,86.703064 
	C166.073273,86.695412 165.447128,86.319145 164.415863,85.593414 
	C164.011108,81.381744 164.009430,77.689957 164.284332,74.231651 
	C165.415085,76.853226 166.269302,79.241318 166.790497,80.698387 
	C169.801743,81.242088 171.900558,81.621040 173.999390,82.000000 
	C173.999985,82.444107 174.000565,82.888214 174.052551,84.047653 
	C175.225815,86.165741 176.109894,88.450966 177.508194,88.827705 
	C186.430756,91.231720 195.942291,92.100464 204.321075,95.675186 
	C211.595352,98.778687 218.624939,98.936142 226.000000,99.000000 
	C226.000000,100.066673 226.000000,101.133339 226.000000,102.600006 
z"/>
<path fill="#082954" opacity="1.000000" stroke="none" 
	d="
M134.992813,34.338783 
	C137.434113,28.438755 136.001602,22.526667 133.117844,18.395578 
	C130.070282,14.029811 130.074570,9.951255 130.002762,5.409900 
	C129.984421,4.249690 130.000000,3.088943 130.000000,1.464221 
	C132.370560,1.000000 134.741104,1.000000 137.555847,0.999999 
	C139.295547,8.582495 140.588150,16.165495 141.888504,23.747164 
	C142.247086,25.837856 143.237488,28.036135 142.879227,29.991013 
	C142.004745,34.762836 143.071121,38.299011 147.571259,40.978184 
	C143.373795,39.650887 139.191772,37.823856 135.009735,35.996826 
	C135.005463,35.554665 135.001205,35.112499 134.992813,34.338783 
z"/>
<path fill="#0D4E9C" opacity="1.000000" stroke="none" 
	d="
M226.000000,33.571537 
	C207.196793,32.665264 194.188446,20.282578 192.000320,1.417377 
	C193.714355,1.000000 195.428711,1.000000 197.571716,1.406516 
	C198.090256,13.256611 214.290192,29.587118 226.000000,28.000000 
	C226.000000,29.714357 226.000000,31.428717 226.000000,33.571537 
z"/>
<path fill="#07274F" opacity="1.000000" stroke="none" 
	d="
M226.000000,98.583336 
	C218.624939,98.936142 211.595352,98.778687 204.321075,95.675186 
	C195.942291,92.100464 186.430756,91.231720 177.508194,88.827705 
	C176.109894,88.450966 175.225815,86.165741 174.052887,84.380737 
	C178.969864,84.383232 183.939743,84.746635 188.903580,85.179512 
	C189.530609,85.234192 190.415985,85.477371 190.691483,85.930954 
	C193.923370,91.251968 199.198105,89.775734 203.959778,90.060173 
	C204.764389,90.108231 205.769379,90.206505 206.313034,90.693359 
	C211.901810,95.698189 218.700531,93.589561 225.533112,94.000000 
	C226.000000,95.388893 226.000000,96.777779 226.000000,98.583336 
z"/>
<path fill="#0F52A7" opacity="1.000000" stroke="none" 
	d="
M226.000000,27.571537 
	C214.290192,29.587118 198.090256,13.256611 198.000183,1.406516 
	C199.714355,1.000000 201.428711,1.000000 203.572906,1.398406 
	C205.631912,13.181365 214.955811,21.744833 226.000000,22.000000 
	C226.000000,23.714357 226.000000,25.428717 226.000000,27.571537 
z"/>
<path fill="#1057B1" opacity="1.000000" stroke="none" 
	d="
M226.000000,21.562500 
	C214.955811,21.744833 205.631912,13.181365 204.001373,1.398406 
	C205.714355,1.000000 207.428711,1.000000 209.614883,1.346187 
	C211.947128,4.184319 213.633652,6.833635 215.710968,9.129333 
	C218.455048,12.161919 221.134659,15.574203 226.000000,15.000000 
	C226.000000,17.041666 226.000000,19.083334 226.000000,21.562500 
z"/>
<path fill="#125FBD" opacity="1.000000" stroke="none" 
	d="
M226.000000,14.525872 
	C221.134659,15.574203 218.455048,12.161919 215.710968,9.129333 
	C213.633652,6.833635 211.947128,4.184319 210.043350,1.346187 
	C215.252289,1.000000 220.504593,1.000000 226.000000,1.000000 
	C226.000000,5.347616 226.000000,9.699680 226.000000,14.525872 
z"/>
<path fill="#FBFCFC" opacity="1.000000" stroke="none" 
	d="
M101.006119,37.863400 
	C101.554100,37.847404 102.102089,37.831409 103.343597,37.673512 
	C112.682930,37.690285 121.328743,37.848957 130.297577,38.189526 
	C137.565216,41.407238 144.509842,44.443058 151.454468,47.478878 
	C151.454468,47.478878 151.778152,47.200233 151.777130,47.578735 
	C152.204391,48.251919 152.632675,48.546597 153.060974,48.841278 
	C153.060974,48.841278 153.049866,48.941616 153.208771,49.237526 
	C154.515244,50.765472 155.662796,51.997513 156.810349,53.229549 
	C156.810349,53.229549 156.901443,53.110012 156.913727,53.480442 
	C157.910629,55.420887 158.895218,56.990906 159.879822,58.560921 
	C160.178040,59.210510 160.476242,59.860100 160.837585,61.112617 
	C161.250092,62.808506 161.599472,63.901474 161.895081,65.334000 
	C161.934891,66.117950 162.028442,66.562347 162.083862,67.473679 
	C162.195099,74.641716 162.344452,81.342819 162.393280,88.499649 
	C162.327042,111.302040 162.361359,133.648712 162.395660,155.995377 
	C162.071518,163.557602 159.562378,170.460052 155.068100,176.398178 
	C153.195374,178.872559 149.920364,180.285645 146.797668,182.527649 
	C145.836777,183.223526 145.361206,183.573044 144.885635,183.922562 
	C144.885635,183.922562 144.951004,183.984833 144.568207,183.945465 
	C137.777222,185.898483 131.369064,187.890869 124.493576,189.869812 
	C116.694115,189.958328 109.361961,190.060287 102.029816,190.162247 
	C97.426300,188.762329 92.732315,187.603882 88.235512,185.919128 
	C72.001038,179.836823 65.563408,170.289032 65.532593,153.724396 
	C65.518524,146.161026 65.802437,138.443268 67.308777,131.072983 
	C68.902817,123.273628 73.623276,116.935982 81.282349,112.412361 
	C90.965904,108.660919 100.123817,105.284492 109.498962,101.927887 
	C109.716187,101.947693 110.067398,101.688889 110.356110,101.652748 
	C111.172585,101.374802 111.700348,101.132996 112.482941,100.901855 
	C112.861046,100.795372 112.984306,100.678246 113.432678,100.489456 
	C116.230255,99.300636 118.702736,98.183464 121.382553,97.056915 
	C121.589882,97.047539 121.997322,96.968246 122.249222,97.110870 
	C122.667946,97.156502 122.834785,97.059502 123.294319,96.973816 
	C124.076286,96.700386 124.565559,96.415649 125.391563,96.131638 
	C126.456383,95.421143 127.184471,94.709923 128.172256,94.024490 
	C128.675125,93.851044 128.918274,93.651825 129.523010,93.330978 
	C135.263565,91.222633 137.305634,86.865082 137.860962,81.625542 
	C138.676666,73.929260 137.419052,66.972153 129.991608,62.205330 
	C128.607635,61.505135 127.443993,61.031723 126.265709,60.558739 
	C126.251068,60.559162 126.268646,60.539104 125.993546,60.305656 
	C121.181793,59.468922 116.658257,58.606525 112.102753,58.376205 
	C109.959023,58.267818 107.745712,59.872974 105.578056,59.837524 
	C98.968811,59.729454 94.345772,62.385002 91.775856,68.510696 
	C91.080803,70.442818 90.160042,72.327942 89.745483,74.318481 
	C89.174591,77.059654 88.067940,78.791832 84.179550,78.208420 
	C82.896507,78.188583 82.386993,78.263840 81.877472,78.339096 
	C80.236069,78.324730 78.594666,78.310364 76.149002,78.200485 
	C74.519463,78.192368 73.694168,78.279747 72.868881,78.367134 
	C64.466370,78.119385 64.521423,78.121460 64.846954,69.471329 
	C65.226646,59.382088 69.632835,51.514515 77.871429,45.304634 
	C78.949600,44.598686 79.866760,44.187515 81.316452,43.443214 
	C88.234695,41.361187 94.620407,39.612293 101.006119,37.863400 
M112.945923,125.669205 
	C112.945923,125.669205 112.641823,125.505669 111.887306,125.625862 
	C105.321838,128.039536 98.056808,129.199371 93.353165,136.222382 
	C92.701088,137.252731 92.049004,138.283081 90.962494,139.855682 
	C90.772339,140.525269 90.582184,141.194855 90.078743,142.334290 
	C90.093704,142.889618 90.108665,143.444946 89.804512,144.872772 
	C89.792984,146.696609 89.674286,148.527145 89.787788,150.343170 
	C90.400658,160.148758 94.421173,165.515198 103.160957,167.743607 
	C110.805725,169.692810 118.453728,169.417740 126.691551,166.944916 
	C134.218521,164.285721 137.286499,158.504456 138.056717,150.063583 
	C138.056717,138.378311 138.056717,126.693047 138.056717,114.414223 
	C136.333008,115.884804 135.147491,116.896240 133.249344,117.972885 
	C131.497269,118.717918 129.745178,119.462959 127.264061,120.230568 
	C122.383255,122.003906 117.502449,123.777252 112.945923,125.669205 
z"/>
<path fill="#091C39" opacity="1.000000" stroke="none" 
	d="
M91.944145,68.905106 
	C94.345772,62.385002 98.968811,59.729454 105.578056,59.837524 
	C107.745712,59.872974 109.959023,58.267818 112.102753,58.376205 
	C116.658257,58.606525 121.181793,59.468922 125.646088,60.447136 
	C122.493790,61.174809 119.413399,61.523827 116.334000,61.881374 
	C113.389236,62.223293 110.445503,62.574089 107.501312,62.920982 
	C107.397758,63.495552 107.294205,64.070122 107.190651,64.644691 
	C114.053619,64.262451 113.939194,68.688431 114.054199,73.170654 
	C114.115669,75.566475 113.890831,78.808716 115.271599,80.157021 
	C118.149254,82.967041 121.780289,85.354179 125.529617,86.822708 
	C129.120346,88.229126 130.106033,90.052864 129.161423,93.452591 
	C128.918274,93.651825 128.675125,93.851044 127.855568,94.060638 
	C126.537727,94.757645 125.796280,95.444275 125.054825,96.130905 
	C124.565559,96.415649 124.076286,96.700386 123.197800,96.826805 
	C122.538162,96.768402 122.267738,96.868317 121.997322,96.968246 
	C121.997322,96.968246 121.589882,97.047539 120.944153,97.039574 
	C118.418137,97.239235 116.452164,97.189774 114.697586,97.774582 
	C113.941940,98.026436 113.624237,99.592247 113.107574,100.561119 
	C112.984306,100.678246 112.861046,100.795372 112.164139,100.720825 
	C111.082802,100.915726 110.575096,101.302307 110.067398,101.688889 
	C110.067398,101.688889 109.716187,101.947693 109.354111,101.581757 
	C107.329353,101.143776 105.666656,101.071732 104.003967,100.999695 
	C103.962418,98.751045 103.726357,97.157875 101.527733,95.263901 
	C99.115959,93.186310 97.611107,89.162514 97.256699,85.822777 
	C96.841057,81.905899 96.434258,78.980835 92.586372,78.965096 
	C92.412575,75.420654 92.262505,72.360085 91.944145,68.905106 
z"/>
<path fill="#051024" opacity="1.000000" stroke="none" 
	d="
M162.669342,155.913025 
	C162.361359,133.648712 162.327042,111.302040 162.642639,88.508698 
	C163.323746,88.028946 163.655762,88.013527 163.988602,88.015762 
	C163.992142,88.456352 163.995682,88.896935 163.998352,90.132645 
	C164.000732,95.284500 164.003998,99.641243 164.007263,103.997986 
	C164.006058,109.685844 164.004868,115.373711 164.007507,121.529129 
	C164.013397,129.683640 164.015457,137.370605 164.015808,145.955109 
	C164.021698,148.570679 164.029282,150.288696 164.036865,152.006699 
	C164.032379,152.447586 164.027893,152.888474 164.029053,153.659821 
	C163.670792,154.603729 163.306900,155.217194 162.669342,155.913025 
z"/>
<path fill="#121E31" opacity="1.000000" stroke="none" 
	d="
M103.650223,100.953842 
	C105.666656,101.071732 107.329353,101.143776 109.136887,101.561943 
	C100.123817,105.284492 90.965904,108.660919 81.447906,112.121819 
	C79.121902,109.186829 81.528259,107.619522 83.518311,106.944855 
	C86.722542,105.858543 90.197945,105.523033 93.582603,105.035820 
	C95.719505,104.728226 97.289673,105.053154 97.623138,101.617760 
	C98.136993,96.323929 101.274536,100.672218 103.650223,100.953842 
z"/>
<path fill="#0F182A" opacity="1.000000" stroke="none" 
	d="
M124.960892,189.883270 
	C131.369064,187.890869 137.777222,185.898483 144.561737,183.900787 
	C145.253265,187.209457 144.086838,189.145447 140.446793,189.419342 
	C135.572250,189.786118 130.720459,190.455185 125.418900,190.717834 
	C124.972908,190.255234 124.966896,190.069244 124.960892,189.883270 
z"/>
<path fill="#01091C" opacity="1.000000" stroke="none" 
	d="
M124.493576,189.869827 
	C124.966896,190.069244 124.972908,190.255234 124.992706,190.720001 
	C117.567360,190.883652 110.128227,190.768539 102.359459,190.407837 
	C109.361961,190.060287 116.694115,189.958328 124.493576,189.869827 
z"/>
<path fill="#535C6F" opacity="1.000000" stroke="none" 
	d="
M72.907631,78.692413 
	C73.694168,78.279747 74.519463,78.192368 75.740967,78.244743 
	C75.073586,78.595566 74.009979,78.806625 72.907631,78.692413 
z"/>
<path fill="#535C6F" opacity="1.000000" stroke="none" 
	d="
M81.898911,78.636597 
	C82.386993,78.263840 82.896507,78.188583 83.771896,78.253189 
	C83.398628,78.573402 82.659492,78.753754 81.898911,78.636597 
z"/>
<path fill="#091C39" opacity="1.000000" stroke="none" 
	d="
M88.778778,79.582733 
	C88.832832,79.406349 88.959641,79.347527 89.086449,79.288712 
	C89.008141,79.425903 88.929832,79.563095 88.778778,79.582733 
z"/>
<path fill="#0F182A" opacity="1.000000" stroke="none" 
	d="
M145.204102,183.906952 
	C145.361206,183.573044 145.836777,183.223526 146.610474,182.813416 
	C146.446579,183.132309 145.984558,183.511826 145.204102,183.906952 
z"/>
<path fill="#051932" opacity="1.000000" stroke="none" 
	d="
M164.391006,151.914719 
	C164.029282,150.288696 164.021698,148.570679 164.023071,146.423325 
	C167.238815,147.573654 166.434830,149.644012 164.391006,151.914719 
z"/>
<path fill="#07274F" opacity="1.000000" stroke="none" 
	d="
M161.948853,64.994438 
	C161.599472,63.901474 161.250092,62.808506 160.972046,61.359829 
	C162.695160,63.411751 164.346939,65.819382 166.000275,68.612595 
	C166.278595,70.870857 166.555374,72.743538 166.830414,74.604485 
	C173.298859,74.590187 173.612991,74.881248 173.999603,81.595451 
	C171.900558,81.621040 169.801743,81.242088 166.790497,80.698387 
	C166.269302,79.241318 165.415085,76.853226 164.281616,73.814262 
	C163.669647,71.100784 163.336929,69.038177 162.972900,66.680222 
	C162.610687,65.921394 162.279770,65.457916 161.948853,64.994438 
z"/>
<path fill="#102340" opacity="1.000000" stroke="none" 
	d="
M151.570740,47.119858 
	C144.509842,44.443058 137.565216,41.407238 130.497086,38.048492 
	C130.665283,37.555305 130.877426,37.314865 131.009995,37.004234 
	C132.130569,36.763359 133.251129,36.522480 134.690720,36.139214 
	C139.191772,37.823856 143.373795,39.650887 147.779449,41.245659 
	C149.231033,42.929214 150.459030,44.845028 151.570740,47.119858 
z"/>
<path fill="#102340" opacity="1.000000" stroke="none" 
	d="
M159.901855,58.131645 
	C158.895218,56.990906 157.910629,55.420887 156.846603,53.514214 
	C157.695190,53.045742 158.623184,52.913929 159.923874,52.729183 
	C159.923874,54.556004 159.923874,56.129185 159.901855,58.131645 
z"/>
<path fill="#102340" opacity="1.000000" stroke="none" 
	d="
M156.856842,52.847454 
	C155.662796,51.997513 154.515244,50.765472 153.259201,49.235077 
	C154.401581,50.112934 155.652466,51.289146 156.856842,52.847454 
z"/>
<path fill="#102340" opacity="1.000000" stroke="none" 
	d="
M152.974350,48.553226 
	C152.632675,48.546597 152.204391,48.251919 151.632385,47.735756 
	C151.955032,47.764576 152.421371,48.014877 152.974350,48.553226 
z"/>
<path fill="#072243" opacity="1.000000" stroke="none" 
	d="
M164.332367,104.057251 
	C164.003998,99.641243 164.000732,95.284500 164.005203,90.463020 
	C164.674835,91.126183 165.535965,92.186096 165.949753,93.398659 
	C166.505463,95.027138 166.715561,96.773552 168.145004,98.653404 
	C169.021652,96.875229 169.898315,95.097054 170.851974,93.162682 
	C175.589493,93.939835 173.440933,97.661995 174.001068,100.566879 
	C174.000824,101.442688 174.000412,101.887817 173.999695,102.666779 
	C171.946259,104.001282 169.893143,105.001938 167.321564,106.255287 
	C166.814270,105.848022 165.735870,104.982269 164.332367,104.057251 
z"/>
<path fill="#1C243C" opacity="1.000000" stroke="none" 
	d="
M100.810417,37.663860 
	C94.620407,39.612293 88.234695,41.361187 81.478943,43.183830 
	C82.619751,39.680374 86.897446,37.365784 90.778244,37.578957 
	C93.225388,37.713379 95.706680,37.226143 98.602722,37.002148 
	C99.560104,37.145794 100.087410,37.305058 100.810417,37.663860 
z"/>
<path fill="#020F26" opacity="1.000000" stroke="none" 
	d="
M130.580658,37.002953 
	C130.877426,37.314865 130.665283,37.555305 130.174072,37.866592 
	C121.328743,37.848957 112.682930,37.690285 103.573914,37.519630 
	C104.797073,37.000580 106.483444,36.493500 108.591522,35.975227 
	C116.059265,36.309914 123.105301,36.655792 130.580658,37.002953 
z"/>
<path fill="#061E3C" opacity="1.000000" stroke="none" 
	d="
M163.004211,66.975571 
	C163.336929,69.038177 163.669647,71.100784 164.005066,73.580780 
	C164.009430,77.689957 164.011108,81.381744 164.019409,85.533386 
	C164.018097,86.442581 164.010147,86.891922 163.995392,87.678513 
	C163.655762,88.013527 163.323746,88.028946 162.743179,88.052963 
	C162.344452,81.342819 162.195099,74.641716 162.304443,67.466370 
	C162.563141,66.992111 163.004211,66.975571 163.004211,66.975571 
z"/>
<path fill="#071A33" opacity="1.000000" stroke="none" 
	d="
M90.123619,144.000275 
	C90.108665,143.444946 90.093704,142.889618 90.611313,141.936676 
	C91.228226,140.797195 91.312576,140.055313 91.396927,139.313431 
	C92.049004,138.283081 92.701088,137.252731 94.010239,136.061584 
	C95.780228,135.264740 96.893150,134.628693 98.299530,134.022705 
	C99.062218,134.368713 99.531441,134.684662 99.880707,135.051697 
	C99.716568,135.175797 99.672386,135.248825 99.628204,135.321838 
	C99.751938,135.214355 99.875671,135.106873 100.295609,134.954987 
	C100.723984,133.943268 100.856163,132.975967 101.342316,131.960693 
	C105.344788,129.777054 108.993301,127.641357 112.641823,125.505661 
	C112.641823,125.505669 112.945923,125.669205 113.223297,125.734116 
	C116.871078,125.338387 120.346817,124.138969 123.585686,124.600807 
	C127.800446,125.201797 128.041107,123.181129 127.993103,120.207993 
	C129.745178,119.462959 131.497269,118.717918 133.833710,118.241196 
	C135.278824,120.142426 136.714417,121.718407 136.882950,123.419899 
	C137.256348,127.189354 136.883347,131.025696 137.016449,134.827682 
	C137.205063,140.215897 137.575439,145.597763 137.868134,150.982330 
	C137.286499,158.504456 134.218521,164.285721 126.032074,166.666748 
	C119.311897,166.178085 113.250816,165.791702 107.190613,165.805222 
	C100.788094,165.819519 96.689583,162.483353 95.927322,156.203293 
	C95.876328,155.783112 95.256081,155.461914 95.070084,155.022873 
	C94.379158,153.391968 93.017090,151.607254 93.267227,150.107117 
	C93.785606,146.998077 93.477020,144.868744 90.123619,144.000275 
z"/>
<path fill="#0A203E" opacity="1.000000" stroke="none" 
	d="
M129.523010,93.330978 
	C130.106033,90.052864 129.120346,88.229126 125.529617,86.822708 
	C121.780289,85.354179 118.149254,82.967041 115.271599,80.157021 
	C113.890831,78.808716 114.115669,75.566475 114.054199,73.170654 
	C113.939194,68.688431 114.053619,64.262451 107.190651,64.644691 
	C107.294205,64.070122 107.397758,63.495552 107.501312,62.920982 
	C110.445503,62.574089 113.389236,62.223293 116.334000,61.881374 
	C119.413399,61.523827 122.493790,61.174809 125.921196,60.680580 
	C126.268646,60.539104 126.251068,60.559162 126.338821,60.890831 
	C127.688362,61.625706 128.950150,62.028912 130.211929,62.432117 
	C137.419052,66.972153 138.676666,73.929260 137.860962,81.625542 
	C137.305634,86.865082 135.263565,91.222633 129.523010,93.330978 
z"/>
<path fill="#091426" opacity="1.000000" stroke="none" 
	d="
M89.964066,144.436523 
	C93.477020,144.868744 93.785606,146.998077 93.267227,150.107117 
	C93.017090,151.607254 94.379158,153.391968 95.070084,155.022873 
	C95.256081,155.461914 95.876328,155.783112 95.927322,156.203293 
	C96.689583,162.483353 100.788094,165.819519 107.190613,165.805222 
	C113.250816,165.791702 119.311897,166.178085 125.674606,166.645691 
	C118.453728,169.417740 110.805725,169.692810 103.160957,167.743607 
	C94.421173,165.515198 90.400658,160.148758 89.787788,150.343170 
	C89.674286,148.527145 89.792984,146.696609 89.964066,144.436523 
z"/>
<path fill="#030616" opacity="1.000000" stroke="none" 
	d="
M137.962433,150.522949 
	C137.575439,145.597763 137.205063,140.215897 137.016449,134.827682 
	C136.883347,131.025696 137.256348,127.189354 136.882950,123.419899 
	C136.714417,121.718407 135.278824,120.142426 134.190033,118.208588 
	C135.147491,116.896240 136.333008,115.884804 138.056717,114.414223 
	C138.056717,126.693047 138.056717,138.378311 137.962433,150.522949 
z"/>
<path fill="#091526" opacity="1.000000" stroke="none" 
	d="
M112.264565,125.565765 
	C108.993301,127.641357 105.344788,129.777054 101.063652,132.083481 
	C99.622711,132.833679 98.814384,133.413162 98.006065,133.992630 
	C96.893150,134.628693 95.780228,135.264740 94.226532,135.813080 
	C98.056808,129.199371 105.321838,128.039536 112.264565,125.565765 
z"/>
<path fill="#091526" opacity="1.000000" stroke="none" 
	d="
M127.628586,120.219284 
	C128.041107,123.181129 127.800446,125.201797 123.585686,124.600807 
	C120.346817,124.138969 116.871078,125.338387 113.061165,125.674805 
	C117.502449,123.777252 122.383255,122.003906 127.628586,120.219284 
z"/>
<path fill="#121E31" opacity="1.000000" stroke="none" 
	d="
M113.432678,100.489456 
	C113.624237,99.592247 113.941940,98.026436 114.697586,97.774582 
	C116.452164,97.189774 118.418137,97.239235 120.736816,97.048950 
	C118.702736,98.183464 116.230255,99.300636 113.432678,100.489456 
z"/>
<path fill="#091C39" opacity="1.000000" stroke="none" 
	d="
M129.991608,62.205330 
	C128.950150,62.028912 127.688362,61.625706 126.353470,60.890404 
	C127.443993,61.031723 128.607635,61.505135 129.991608,62.205330 
z"/>
<path fill="#121E31" opacity="1.000000" stroke="none" 
	d="
M125.391563,96.131638 
	C125.796280,95.444275 126.537727,94.757645 127.595871,94.034851 
	C127.184471,94.709923 126.456383,95.421143 125.391563,96.131638 
z"/>
<path fill="#08254C" opacity="1.000000" stroke="none" 
	d="
M162.972900,66.680222 
	C163.004211,66.975571 162.563141,66.992111 162.342560,66.999428 
	C162.028442,66.562347 161.934891,66.117950 161.895081,65.334000 
	C162.279770,65.457916 162.610687,65.921394 162.972900,66.680222 
z"/>
<path fill="#121E31" opacity="1.000000" stroke="none" 
	d="
M110.356110,101.652740 
	C110.575096,101.302307 111.082802,100.915726 111.909302,100.710175 
	C111.700348,101.132996 111.172585,101.374802 110.356110,101.652740 
z"/>
<path fill="#091526" opacity="1.000000" stroke="none" 
	d="
M91.179718,139.584564 
	C91.312576,140.055313 91.228226,140.797195 90.767944,141.701752 
	C90.582184,141.194855 90.772339,140.525269 91.179718,139.584564 
z"/>
<path fill="#121E31" opacity="1.000000" stroke="none" 
	d="
M122.249222,97.110870 
	C122.267738,96.868317 122.538162,96.768402 122.905106,96.815491 
	C122.834785,97.059502 122.667946,97.156502 122.249222,97.110870 
z"/>
<path fill="#091426" opacity="1.000000" stroke="none" 
	d="
M98.299530,134.022705 
	C98.814384,133.413162 99.622711,132.833679 100.709686,132.131439 
	C100.856163,132.975967 100.723984,133.943268 100.295898,134.955292 
	C100.000000,135.000000 100.000671,135.000610 100.000671,135.000610 
	C99.531441,134.684662 99.062218,134.368713 98.299530,134.022705 
z"/>
<path fill="#091426" opacity="1.000000" stroke="none" 
	d="
M99.999702,134.999695 
	C99.875671,135.106873 99.751938,135.214355 99.628204,135.321838 
	C99.672386,135.248825 99.716568,135.175797 99.880707,135.051697 
	C100.000671,135.000610 100.000000,135.000000 99.999702,134.999695 
z"/>
</svg>